<svg xmlns="http://www.w3.org/2000/svg" width="460" height="460" viewBox="0 0 460 460" version="1.1">
	<path d="M 47 1.560 C 24.788 6.348, 6.117 25.295, 1.470 47.763 C 0.161 54.094, 0.002 77.951, 0.234 233.763 L 0.500 412.500 2.618 418.022 C 6.851 429.060, 10.339 434.563, 17.888 442.114 C 25.645 449.873, 32.138 453.880, 43 457.611 C 48.313 459.436, 54.656 459.500, 230 459.500 C 405.344 459.500, 411.687 459.436, 417 457.611 C 427.901 453.866, 434.352 449.876, 442.234 442.001 C 450.471 433.772, 455.741 424.626, 458.081 414.500 C 458.716 411.750, 459.633 408.719, 460.118 407.764 C 461.161 405.710, 461.337 51.329, 460.295 52.372 C 459.907 52.760, 459.015 50.248, 458.314 46.789 C 453.931 25.173, 434.702 6.166, 412.500 1.504 C 402.272 -0.643, 56.977 -0.591, 47 1.560 M 224.764 28.944 C 219.550 30.612, 214.970 34.195, 212.361 38.647 C 210.041 42.606, 209.795 43.896, 210.224 49.886 C 210.606 55.221, 211.676 58.697, 215.285 66.315 C 220.953 78.281, 227.907 89, 230 89 C 232.093 89, 239.047 78.281, 244.715 66.315 C 248.324 58.697, 249.394 55.221, 249.776 49.886 C 250.206 43.877, 249.963 42.612, 247.604 38.586 C 243.185 31.046, 232.412 26.498, 224.764 28.944 M 0.489 230.500 C 0.489 328.400, 0.606 368.302, 0.750 319.171 C 0.893 270.040, 0.893 189.940, 0.750 141.171 C 0.606 92.402, 0.489 132.600, 0.489 230.500 M 96.764 81.958 C 87.512 84.872, 81.474 92.850, 81.604 101.992 C 81.774 113.999, 88.651 119.976, 110.226 126.869 C 115.575 128.579, 122.438 130.269, 125.476 130.626 C 130.913 131.265, 131 131.235, 131 128.700 C 131 122.668, 125.373 103.640, 121.028 94.981 C 118.421 89.784, 114.565 85.378, 110.987 83.508 C 107.570 81.721, 100.100 80.907, 96.764 81.958 M 355.500 81.447 C 354.950 81.655, 353.271 82.096, 351.768 82.427 C 347.629 83.339, 342.189 88.680, 339.052 94.913 C 335.338 102.292, 330.187 118.558, 329.374 125.476 C 328.735 130.913, 328.765 131, 331.300 131 C 334.845 131, 345.097 128.540, 353.519 125.669 C 371.860 119.417, 378.235 113.349, 378.396 101.992 C 378.497 94.848, 374.756 88.114, 368.723 84.578 C 364.764 82.258, 357.748 80.597, 355.500 81.447 M 265.764 208.733 L 225.031 249.466 204.710 229.233 C 191.691 216.271, 183.661 209, 182.363 209 C 179.855 209, 166 223.048, 166 225.591 C 166 228.324, 221.958 284, 224.705 284 C 227.391 284, 324.312 187.004, 324.837 183.791 C 325.324 180.817, 312.489 168, 309.025 168 C 307.029 168, 297.927 176.570, 265.764 208.733 M 38.907 212.328 C 25.204 219.565, 25.204 240.435, 38.907 247.672 C 46.600 251.735, 55.203 250.447, 70.004 243.015 C 79.727 238.134, 89 231.780, 89 230 C 89 228.220, 79.727 221.866, 70.004 216.985 C 55.203 209.553, 46.600 208.265, 38.907 212.328 M 401.500 211.930 C 389.717 216.133, 371 227.222, 371 230 C 371 232.868, 390.094 244.076, 401.902 248.138 C 413.423 252.102, 422.992 249.394, 428.417 240.636 C 436.745 227.189, 427.199 209.849, 411.593 210.073 C 408.792 210.113, 404.250 210.949, 401.500 211.930 M 116.442 331.440 C 96.991 336.470, 85.429 343.147, 82.893 350.816 C 77.526 367.045, 90.982 381.745, 107.325 377.506 C 114.098 375.749, 118.645 370.808, 122.905 360.574 C 126.331 352.343, 131 335.501, 131 331.372 C 131 328.302, 128.536 328.313, 116.442 331.440 M 329 331.372 C 329 335.501, 333.669 352.343, 337.095 360.574 C 341.355 370.808, 345.902 375.749, 352.675 377.506 C 369.018 381.745, 382.474 367.045, 377.107 350.816 C 374.545 343.071, 362.880 336.391, 343.196 331.398 C 330.965 328.295, 329 328.291, 329 331.372 M 227.196 373.292 C 223.826 376.879, 216.271 390.700, 212.878 399.485 C 210.382 405.946, 209.872 408.553, 210.204 413.142 C 211.574 432.086, 236.131 438.157, 247.033 422.247 C 250.845 416.683, 250.875 409.201, 247.122 399.485 C 242.374 387.192, 232.642 371, 230 371 C 229.642 371, 228.380 372.031, 227.196 373.292" stroke="none" fill="black" fill-rule="evenodd"/>
</svg>